<?xml version="1.0" encoding="UTF-8" standalone="no"?>
<svg
   xmlns:dc="http://purl.org/dc/elements/1.1/"
   xmlns:cc="http://creativecommons.org/ns#"
   xmlns:rdf="http://www.w3.org/1999/02/22-rdf-syntax-ns#"
   xmlns:svg="http://www.w3.org/2000/svg"
   xmlns="http://www.w3.org/2000/svg"
   xmlns:sodipodi="http://sodipodi.sourceforge.net/DTD/sodipodi-0.dtd"
   xmlns:inkscape="http://www.inkscape.org/namespaces/inkscape"
   version="1.1"
   id="svg833"
   width="50"
   height="50"
   viewBox="0 0 50.000001 50"
   sodipodi:docname="actuality_icon.svg"
   inkscape:version="1.0.1 (3bc2e813f5, 2020-09-07)">
  <metadata
     id="metadata839">
    <rdf:RDF>
      <cc:Work
         rdf:about="">
        <dc:format>image/svg+xml</dc:format>
        <dc:type
           rdf:resource="http://purl.org/dc/dcmitype/StillImage" />
        <dc:title></dc:title>
      </cc:Work>
    </rdf:RDF>
  </metadata>
  <defs
     id="defs837" />
  <sodipodi:namedview
     pagecolor="#ffffff"
     bordercolor="#666666"
     borderopacity="1"
     objecttolerance="10"
     gridtolerance="10"
     guidetolerance="10"
     inkscape:pageopacity="0"
     inkscape:pageshadow="2"
     inkscape:window-width="1920"
     inkscape:window-height="1001"
     id="namedview835"
     showgrid="false"
     inkscape:zoom="4.5693727"
     inkscape:cx="93.120003"
     inkscape:cy="80"
     inkscape:window-x="-9"
     inkscape:window-y="-9"
     inkscape:window-maximized="1"
     inkscape:current-layer="g847" />
  <g
     inkscape:groupmode="layer"
     inkscape:label="Image"
     id="g841">
    <g
       id="g847"
       transform="matrix(0.17708811,0,0,0.16876896,71.251232,69.40721)">
      <g
         id="g1439"
         transform="matrix(2.3141389,0,0,2.3141389,-464.98483,-450.73253)">
        <path
           style="fill:#d57108;stroke-width:0.32"
           d="m 78.0073,121.44929 c -1.249754,-0.11637 -2.473754,-0.37453 -2.720001,-0.57367 -0.246243,-0.19915 -0.951718,-0.43775 -1.567718,-0.53023 -1.940231,-0.29129 -3.368573,-0.74983 -5.558157,-1.78437 -1.167955,-0.55183 -2.200999,-1.00332 -2.295655,-1.00332 -0.09466,0 -0.562272,-0.26285 -1.039145,-0.5841 -0.476874,-0.32126 -1.587044,-1.06837 -2.467044,-1.66026 -3.995017,-2.68704 -10.545059,-9.35761 -11.844106,-12.06205 -0.271162,-0.56452 -0.633696,-1.11335 -0.805632,-1.21961 -0.171936,-0.10626 -0.226851,-0.5349 -0.122035,-0.95252 0.141251,-0.56279 0.01133,-0.8683 -0.501936,-1.180391 -0.94488,-0.574519 -2.551895,-4.135447 -2.561472,-5.675875 -0.0026,-0.426141 -0.25682,-1.053261 -0.56482,-1.393597 -0.505056,-0.558077 -0.56,-1.491322 -0.56,-9.5116 0,-8.020279 0.05494,-8.953523 0.56,-9.5116 0.308,-0.340336 0.565104,-0.967456 0.571341,-1.393597 0.0062,-0.426141 0.217133,-1.134803 0.46866,-1.574803 0.251526,-0.44 0.462425,-1.074055 0.468659,-1.409011 0.01085,-0.582125 1.597104,-4.305085 2.262886,-5.310989 0.174736,-0.264 0.474765,-0.87904 0.666736,-1.366755 0.191972,-0.487716 0.621888,-1.032781 0.955376,-1.211258 0.333488,-0.178477 0.606343,-0.553981 0.606343,-0.834451 0,-0.66296 5.22167,-6.023911 6.88,-7.063514 0.704,-0.441334 1.617562,-1.220777 2.030135,-1.732096 0.412572,-0.511315 1.276573,-1.218208 1.92,-1.570867 0.643427,-0.352659 1.961865,-1.12799 2.929866,-1.722954 0.968,-0.594963 2.768,-1.397936 4,-1.784384 1.232,-0.386444 2.672,-0.939126 3.2,-1.228176 1.434038,-0.785056 19.356091,-0.788464 20.800001,-0.004 0.528,0.286874 1.968,0.842064 3.2,1.23376 1.232,0.391693 2.456,0.889264 2.72,1.105709 0.264,0.216445 0.983998,0.591507 1.599998,0.833472 1.11682,0.438685 4.38583,2.672599 6.98393,4.772535 0.75333,0.608889 1.60021,1.592848 1.88196,2.186579 0.28174,0.593731 0.82009,1.19655 1.19634,1.339597 0.37624,0.143046 0.87579,0.491088 1.11011,0.77342 0.50682,0.610685 1.29218,0.676839 1.34554,0.113338 0.0208,-0.22 0.0568,-2.056 0.08,-4.08 0.0421,-3.679987 0.0421,-3.679987 3.24212,-3.679987 3.2,0 3.2,0 3.2,34.72 0,34.720005 0,34.720005 -3.2,34.720005 -3.2,0 -3.2,0 -3.28691,-6.16 -0.0478,-3.388 -0.13982,-6.16 -0.20449,-6.16 -0.0647,0 -1.4718,1.332 -3.12697,2.96 -1.65516,1.628 -4.08314,3.66426 -5.39551,4.52502 -1.31236,0.86076 -2.74612,1.80472 -3.18612,2.09769 -0.44,0.29297 -1.304,0.72843 -1.919998,0.96768 -0.616,0.23926 -1.336,0.60171 -1.6,0.80545 -0.264,0.20374 -1.128,0.55502 -1.92,0.78062 -0.792,0.2256 -1.770774,0.53919 -2.175056,0.69686 -0.404282,0.15767 -1.093347,0.28668 -1.531261,0.28668 -0.43791,0 -1.123401,0.21439 -1.523315,0.47642 -0.838512,0.54941 -9.346324,0.89428 -13.20265,0.53517 z m 14.099101,-8.63828 c 0.872749,-0.20842 1.729549,-0.52168 1.904,-0.69613 0.174448,-0.17445 0.544362,-0.31718 0.822026,-0.31718 0.704934,0 5.302903,-2.38886 6.631433,-3.44534 3.8788,-3.08453 7.28124,-6.81009 8.50415,-9.311822 0.31264,-0.639561 0.71214,-1.378841 0.88776,-1.642841 0.75345,-1.13256 1.90381,-3.918074 1.90381,-4.609943 0,-0.41343 0.216,-0.930956 0.48,-1.150057 0.69093,-0.573418 0.71241,-16.126256 0.0242,-17.494067 -0.25071,-0.498263 -0.62388,-1.481933 -0.82926,-2.185933 -0.20538,-0.704 -0.61225,-1.744007 -0.90416,-2.311123 -0.2919,-0.567117 -0.93993,-1.832445 -1.44006,-2.81184 -0.50013,-0.979392 -1.25613,-2.007949 -1.68,-2.28568 -0.42387,-0.277728 -0.77068,-0.645434 -0.77068,-0.817124 0,-0.562156 -2.91287,-3.736752 -4.55918,-4.968819 -3.613416,-2.704208 -5.458709,-3.925414 -5.93148,-3.925414 -0.274419,0 -0.726282,-0.190413 -1.004141,-0.423139 -0.277859,-0.23273 -1.153197,-0.607725 -1.945197,-0.833325 -0.792,-0.225603 -1.770774,-0.539191 -2.175056,-0.696861 -0.404282,-0.15767 -1.215821,-0.286675 -1.803424,-0.286675 -0.5876,0 -1.480823,-0.215114 -1.984941,-0.478029 -1.249799,-0.651814 -8.381249,-0.646739 -10.19658,0.0073 -0.704,0.253622 -1.667501,0.463302 -2.141114,0.465952 -0.473612,0.0026 -0.950112,0.148819 -1.058886,0.324819 -0.108774,0.176 -0.603686,0.32 -1.099805,0.32 -1.010697,0 -3.069558,0.777379 -3.3772,1.275152 -0.110419,0.178659 -0.460323,0.324842 -0.777562,0.324842 -1.782579,0 -12.505434,9.38887 -12.505434,10.949686 0,0.197955 -0.216141,0.598755 -0.480317,0.890663 -0.654077,0.722748 -3.039683,6.275766 -3.039683,7.075529 0,0.993837 -0.973181,3.736695 -1.472967,4.151482 -0.589347,0.489113 -0.565766,1.075737 0.06426,1.598614 0.363837,0.301959 0.459965,0.74065 0.333315,1.521111 -0.385162,2.373468 0.431312,10.028048 1.257904,11.793097 0.427616,0.913104 0.777485,1.856304 0.777485,2.096 0,0.239699 0.120922,0.572618 0.26871,0.739818 0.147792,0.1672 0.466992,0.808 0.709335,1.424 0.696787,1.771133 6.070234,8.960007 6.697309,8.960007 0.133798,0 1.17015,0.75975 2.303008,1.68833 2.375207,1.94692 6.231197,4.07167 7.389252,4.07167 0.436713,0 0.973286,0.216 1.192387,0.48 0.219101,0.264 0.848733,0.4822 1.399181,0.4849 0.550451,0.003 1.216819,0.14743 1.480819,0.32164 0.661629,0.4366 14.128682,0.20871 16.14682,-0.27323 z"
           id="path851" />
        <path
           style="fill:#1c24d7;stroke-width:0.32"
           d="m 78.679581,139.16784 c -8.626167,-1.64834 -16.787265,-4.96442 -24.141531,-9.80935 -3.017552,-1.98793 -3.017552,-1.98793 -4.719088,-1.63103 -2.252835,0.47253 -7.862701,2.8878 -12.137783,5.2258 -4.937357,2.70018 -4.713677,2.91058 -3.190013,-3.00064 3.622707,-14.05464 3.713271,-15.90598 0.990291,-20.24378 -2.481225,-3.95269 -5.270509,-9.57174 -5.277277,-10.631143 -0.0077,-1.209175 3.081357,-1.069485 3.538279,0.16 0.586691,1.578673 3.529318,7.219403 5.175565,9.921053 1.963664,3.22258 2.027171,6.63878 0.274602,14.77179 -0.546708,2.53707 -0.923345,4.68353 -0.836967,4.7699 0.08637,0.0864 1.562592,-0.50008 3.280483,-1.30325 7.532097,-3.52147 10.138759,-3.67652 14.323438,-0.85198 20.837435,14.06463 49.04054,13.44905 68.83564,-1.50245 3.13123,-2.36506 3.13123,-2.36506 5.3078,-2.36506 2.66822,0 2.67779,0.13036 0.17656,2.40559 -6.50973,5.92156 -17.12123,11.28007 -27.03185,13.65033 -3.598679,0.86068 -20.750033,1.16381 -24.568149,0.43422 z M 143.00158,68.837697 c -0.0759,-0.22 -0.45325,-1.336 -0.83867,-2.48 -3.05232,-9.060039 -10.85215,-20.172813 -18.50775,-26.368851 -4.28961,-3.47178 -14.15771,-9.18958 -17.93558,-10.392277 -8.318075,-2.648091 -11.836603,-3.477148 -15.679998,-3.694619 -1.32,-0.07469 -3.84,-0.226051 -5.6,-0.336359 -4.559428,-0.285763 -12.715387,0.794454 -18.095134,2.396612 -3.121604,0.929654 -3.184868,0.911273 -3.184868,-0.925324 0,-1.940264 0.139872,-2.049337 3.680001,-2.869732 10.768355,-2.495474 21.924839,-2.677419 31.040001,-0.506216 14.566168,3.469616 22.141458,7.702821 32.848648,18.356401 4.07162,4.051232 6.13943,6.379754 7.40652,8.340365 2.93341,4.538944 5.99354,10.447011 7.1069,13.721024 1.65973,4.880717 1.63319,5.158976 -0.49211,5.158976 -1.00114,0 -1.6622,-0.151274 -1.74796,-0.4 z"
           id="path849" />
      </g>
    </g>
  </g>
</svg>
